<?xml version="1.0" encoding="utf-8"?>
<svg xmlns="http://www.w3.org/2000/svg" viewBox="-350.36 -332.9492 361.0656 54.1992" width="361.066px" height="54.1993px">
  <g transform="matrix(1.0000000000000002, 0, 0, 1.0000000000000002, 2.2737367544323206e-13, 0)">
    <title>calendra</title>
    <path d="M -336.86 -321.87 L -316.51 -321.87 C -309.05 -321.87 -303.01 -315.81 -303.01 -308.37 L -303.01 -292.25 C -303.01 -284.79 -309.05 -278.75 -316.51 -278.75 L -336.86 -278.75 C -344.32 -278.75 -350.36 -284.79 -350.36 -292.25 L -350.36 -308.37 C -350.36 -315.81 -344.32 -321.87 -336.86 -321.87 Z M -316.402 -291.717 C -315.642 -292.016 -314.971 -292.428 -314.388 -292.953 C -313.826 -293.477 -313.384 -294.095 -313.061 -294.807 C -312.739 -295.519 -312.577 -296.268 -312.577 -297.055 C -312.577 -297.823 -312.739 -298.562 -313.061 -299.274 C -313.384 -299.986 -313.826 -300.604 -314.388 -301.129 C -314.971 -301.672 -315.642 -302.093 -316.402 -302.393 C -317.162 -302.692 -317.969 -302.842 -318.822 -302.842 L -321.226 -302.842 L -321.226 -307.422 L -313.577 -307.422 L -313.577 -309.95 L -323.974 -309.95 L -323.974 -300.314 L -318.822 -300.314 C -317.906 -300.314 -317.074 -299.995 -316.324 -299.359 C -315.637 -298.703 -315.294 -297.935 -315.294 -297.055 C -315.294 -296.174 -315.637 -295.406 -316.324 -294.751 C -317.032 -294.114 -317.865 -293.796 -318.822 -293.796 L -323.818 -293.796 L -323.818 -291.267 L -318.822 -291.267 C -317.969 -291.267 -317.162 -291.417 -316.402 -291.717 Z M -330.499 -291.562 C -329.75 -291.852 -329.094 -292.25 -328.532 -292.756 C -327.97 -293.262 -327.538 -293.852 -327.236 -294.526 C -326.935 -295.2 -326.784 -295.922 -326.784 -296.689 L -326.784 -304.528 C -326.784 -305.296 -326.935 -306.017 -327.236 -306.691 C -327.538 -307.366 -327.97 -307.956 -328.532 -308.461 C -329.094 -308.967 -329.75 -309.365 -330.499 -309.655 C -331.249 -309.946 -332.029 -310.091 -332.841 -310.091 L -333.965 -310.091 C -334.777 -310.091 -335.552 -309.946 -336.291 -309.655 C -337.03 -309.365 -337.681 -308.967 -338.243 -308.461 C -338.805 -307.937 -339.242 -307.338 -339.554 -306.663 C -339.866 -305.989 -340.022 -305.277 -340.022 -304.528 L -340.022 -296.689 C -340.022 -295.94 -339.866 -295.229 -339.554 -294.554 C -339.242 -293.88 -338.805 -293.281 -338.243 -292.756 C -337.681 -292.25 -337.03 -291.852 -336.291 -291.562 C -335.552 -291.272 -334.777 -291.127 -333.965 -291.127 L -332.841 -291.127 C -332.029 -291.127 -331.249 -291.272 -330.499 -291.562 Z M -330.499 -294.554 C -331.145 -293.955 -331.925 -293.655 -332.841 -293.655 L -333.965 -293.655 C -334.86 -293.655 -335.635 -293.959 -336.291 -294.568 C -336.947 -295.177 -337.275 -295.884 -337.275 -296.689 L -337.275 -304.528 C -337.275 -305.333 -336.947 -306.04 -336.291 -306.649 C -335.635 -307.258 -334.86 -307.562 -333.965 -307.562 L -332.841 -307.562 C -331.925 -307.562 -331.145 -307.263 -330.499 -306.663 C -329.854 -306.064 -329.531 -305.352 -329.531 -304.528 L -329.531 -296.689 C -329.531 -295.865 -329.854 -295.154 -330.499 -294.554 Z" style="fill: rgb(255, 255, 255);"/>
    <g id="svgGroup" stroke-linecap="round" fill-rule="nonzero" font-size="9pt" stroke="#ffffff" stroke-width="0.5" fill="#ffffff" style="stroke: rgb(255, 255, 255); stroke-width: 0.5; fill: rgb(255, 255, 255);" transform="matrix(1.049453, 0, 0, 1.069821, -295.001046, -332.950236)">
      <path d="M 44.326 8.851 L 40.426 12.151 Q 37.576 8.851 33.563 7.013 Q 29.551 5.176 25.201 5.176 Q 19.801 5.176 15.188 7.913 Q 10.576 10.651 7.876 15.301 Q 5.176 19.951 5.176 25.351 Q 5.176 30.751 7.876 35.363 Q 10.576 39.976 15.188 42.676 Q 19.801 45.376 25.201 45.376 Q 29.551 45.376 33.563 43.538 Q 37.576 41.701 40.426 38.401 L 44.326 41.701 Q 40.801 45.901 35.776 48.226 Q 30.751 50.551 25.201 50.551 Q 18.301 50.551 12.526 47.176 Q 6.751 43.801 3.376 38.026 Q 0.001 32.251 0.001 25.351 Q 0.001 18.451 3.376 12.638 Q 6.751 6.826 12.563 3.413 Q 18.376 0.001 25.201 0.001 Q 30.751 0.001 35.776 2.288 Q 40.801 4.576 44.326 8.851 Z M 180.376 27.451 L 180.376 50.101 L 175.201 50.101 L 175.201 27.451 Q 175.201 24.826 173.888 22.613 Q 172.576 20.401 170.326 19.088 Q 168.076 17.776 165.451 17.776 Q 162.826 17.776 160.576 19.088 Q 158.326 20.401 157.013 22.613 Q 155.701 24.826 155.701 27.451 L 155.701 50.101 L 150.601 50.101 L 150.601 13.576 L 155.701 13.576 L 155.701 16.876 Q 157.576 14.776 160.088 13.688 Q 162.601 12.601 165.451 12.601 Q 169.501 12.601 172.913 14.588 Q 176.326 16.576 178.351 19.988 Q 180.376 23.401 180.376 27.451 Z M 143.701 34.126 L 111.451 34.126 Q 112.351 38.926 116.176 42.113 Q 120.001 45.301 124.951 45.301 Q 128.626 45.301 131.701 43.576 Q 134.776 41.851 136.651 38.851 L 141.076 41.401 Q 138.526 45.526 134.251 48.001 Q 129.976 50.476 124.951 50.476 Q 119.851 50.476 115.501 47.926 Q 111.151 45.376 108.601 41.026 Q 106.051 36.676 106.051 31.576 Q 106.051 26.401 108.601 22.088 Q 111.151 17.776 115.501 15.226 Q 119.851 12.676 124.951 12.676 Q 130.051 12.676 134.401 15.226 Q 138.751 17.776 141.301 22.088 Q 143.851 26.401 143.851 31.576 Q 143.851 32.476 143.701 34.126 Z M 111.451 29.251 L 138.451 29.251 Q 138.451 26.176 136.501 23.513 Q 134.551 20.851 131.438 19.313 Q 128.326 17.776 124.951 17.776 Q 121.651 17.776 118.501 19.313 Q 115.351 20.851 113.401 23.513 Q 111.451 26.176 111.451 29.251 Z M 224.401 0.301 L 224.401 50.101 L 219.376 50.101 L 219.376 43.126 Q 213.901 50.476 205.351 50.476 Q 200.176 50.476 195.826 47.926 Q 191.476 45.376 188.926 40.988 Q 186.376 36.601 186.376 31.501 Q 186.376 26.401 188.926 22.013 Q 191.476 17.626 195.826 15.076 Q 200.176 12.526 205.351 12.526 Q 214.201 12.526 219.376 19.501 L 219.376 0.301 L 224.401 0.301 Z M 219.226 31.501 Q 219.226 27.751 217.351 24.601 Q 215.476 21.451 212.288 19.576 Q 209.101 17.701 205.351 17.701 Q 201.601 17.701 198.451 19.576 Q 195.301 21.451 193.426 24.601 Q 191.551 27.751 191.551 31.501 Q 191.551 35.251 193.426 38.438 Q 195.301 41.626 198.451 43.501 Q 201.601 45.376 205.351 45.376 Q 209.101 45.376 212.288 43.501 Q 215.476 41.626 217.351 38.438 Q 219.226 35.251 219.226 31.501 Z M 81.526 13.576 L 86.701 13.576 L 86.701 50.101 L 81.526 50.101 L 81.526 43.201 Q 76.351 50.476 67.726 50.476 Q 62.551 50.476 58.201 47.963 Q 53.851 45.451 51.338 41.101 Q 48.826 36.751 48.826 31.651 Q 48.826 26.476 51.338 22.126 Q 53.851 17.776 58.201 15.263 Q 62.551 12.751 67.726 12.751 Q 73.051 12.751 76.463 14.963 Q 79.876 17.176 81.526 19.726 L 81.526 13.576 Z M 67.726 45.376 Q 71.476 45.376 74.626 43.538 Q 77.776 41.701 79.613 38.551 Q 81.451 35.401 81.451 31.651 Q 81.451 27.901 79.613 24.713 Q 77.776 21.526 74.626 19.688 Q 71.476 17.851 67.726 17.851 Q 63.976 17.851 60.788 19.688 Q 57.601 21.526 55.763 24.713 Q 53.926 27.901 53.926 31.651 Q 53.926 35.401 55.763 38.551 Q 57.601 41.701 60.788 43.538 Q 63.976 45.376 67.726 45.376 Z M 286.126 13.576 L 291.301 13.576 L 291.301 50.101 L 286.126 50.101 L 286.126 43.201 Q 280.951 50.476 272.326 50.476 Q 267.151 50.476 262.801 47.963 Q 258.451 45.451 255.938 41.101 Q 253.426 36.751 253.426 31.651 Q 253.426 26.476 255.938 22.126 Q 258.451 17.776 262.801 15.263 Q 267.151 12.751 272.326 12.751 Q 277.651 12.751 281.063 14.963 Q 284.476 17.176 286.126 19.726 L 286.126 13.576 Z M 272.326 45.376 Q 276.076 45.376 279.226 43.538 Q 282.376 41.701 284.213 38.551 Q 286.051 35.401 286.051 31.651 Q 286.051 27.901 284.213 24.713 Q 282.376 21.526 279.226 19.688 Q 276.076 17.851 272.326 17.851 Q 268.576 17.851 265.388 19.688 Q 262.201 21.526 260.363 24.713 Q 258.526 27.901 258.526 31.651 Q 258.526 35.401 260.363 38.551 Q 262.201 41.701 265.388 43.538 Q 268.576 45.376 272.326 45.376 Z M 94.201 0.226 L 99.301 0.226 L 99.301 50.101 L 94.201 50.101 L 94.201 0.226 Z M 237.001 26.026 L 237.001 50.101 L 231.901 50.101 L 231.901 26.026 Q 231.901 21.976 234.038 18.638 Q 236.176 15.301 239.626 13.651 L 239.776 13.576 Q 242.551 12.301 245.626 12.301 Q 250.426 12.301 254.176 15.226 L 249.076 18.151 Q 247.351 17.401 245.626 17.401 Q 242.101 17.401 239.551 19.951 Q 237.001 22.501 237.001 26.026 Z" vector-effect="non-scaling-stroke"/>
    </g>
  </g>
</svg>