<?xml version="1.0" encoding="utf-8"?>
<svg xmlns="http://www.w3.org/2000/svg" viewBox="-657.37 8.0517 398.059 69.4615" width="398.059px" height="69.4616px">
  <g transform="matrix(1.0000000000000002, 0, 0, 1.0000000000000002, 2.2737367544323206e-13, 0)">
    <title>dentimo</title>
    <path d="M -300.78 8.075 C -297.72 8.007 -294.52 8.469 -291.59 9.403 C -290.34 9.779 -289.17 9.552 -287.96 9.206 C -285.72 8.608 -283.47 8.226 -281.14 8.094 C -281.06 8.088 -280.97 8.084 -280.88 8.079 C -275.53 7.823 -270 9.366 -265.99 12.888 C -261.76 16.688 -259.6 22.01 -259.34 27.572 C -259.04 35.395 -261.11 42.556 -263.7 49.873 C -263.79 50.066 -263.79 50.066 -263.83 50.264 C -264.09 50.9 -264.3 51.537 -264.52 52.173 C -265.73 55.45 -265.73 55.45 -266.68 58.794 C -266.72 58.993 -266.72 58.993 -266.77 59.197 C -267.2 60.928 -267.5 62.655 -267.67 64.424 C -268.15 68.494 -269.05 72.691 -272.42 75.477 C -274.23 76.829 -276.61 77.706 -278.9 77.477 C -281.18 77.179 -283.04 76.349 -284.77 74.875 C -284.9 74.78 -284.9 74.78 -284.98 74.684 C -286.37 73.447 -287.27 71.709 -287.75 69.976 C -287.79 69.889 -287.79 69.802 -287.83 69.713 C -288.22 68.35 -288.44 66.957 -288.7 65.572 C -288.96 64.261 -289.22 62.98 -289.69 61.725 C -289.78 61.466 -289.86 61.216 -289.95 60.948 C -290.29 61.063 -290.38 61.145 -290.55 61.46 C -291.12 63.062 -291.46 64.711 -291.8 66.375 C -292.37 69.345 -292.93 72.131 -295.09 74.418 C -295.17 74.49 -295.22 74.562 -295.3 74.636 C -296.94 76.361 -299.32 77.245 -301.69 77.501 C -304.15 77.583 -306.44 76.712 -308.3 75.139 C -308.99 74.541 -309.51 73.883 -309.98 73.163 C -310.11 73.034 -310.11 73.034 -310.2 72.902 C -311.97 70.282 -312.36 67.043 -312.7 64.008 C -313.35 58.712 -315.2 53.788 -317.02 48.786 C -320.34 39.688 -322.98 29.471 -318.79 18.609 C -316.59 14.236 -312.7 10.849 -308 9.234 C -306.27 8.671 -304.54 8.385 -302.73 8.207 C -302.6 8.193 -302.43 8.177 -302.3 8.162 C -301.78 8.117 -301.3 8.097 -300.78 8.075 Z M -307.3 14.829 C -307.39 14.864 -307.43 14.899 -307.52 14.935 C -310.76 16.486 -312.92 19.259 -314.08 22.519 C -317.19 31.45 -313.69 41.071 -310.59 49.516 C -308.6 55.041 -308.6 55.041 -307.95 57.587 C -307.95 57.662 -307.91 57.737 -307.91 57.815 C -307.39 59.893 -307.04 61.956 -306.79 64.079 C -306.53 66.554 -306.18 69.441 -304.24 71.275 C -303.55 71.81 -303.03 71.982 -302.17 71.964 C -302.04 71.966 -301.95 71.967 -301.86 71.97 C -300.96 71.964 -300.27 71.622 -299.62 70.994 C -298.19 69.524 -297.98 67.488 -297.59 65.582 C -296.86 61.952 -296.86 61.952 -296.38 60.512 C -296.34 60.41 -296.29 60.308 -296.25 60.202 C -295.56 58.324 -294.48 56.796 -292.63 55.919 C -291.16 55.336 -289.13 55.383 -287.7 55.954 C -285.67 56.888 -284.68 58.543 -283.95 60.534 C -283.47 61.865 -283.17 63.243 -282.91 64.623 C -282.91 64.715 -282.87 64.807 -282.87 64.903 C -282.78 65.359 -282.7 65.817 -282.61 66.274 C -282.48 67.133 -282.26 67.97 -282.01 68.803 C -281.96 68.915 -281.96 68.915 -281.92 69.029 C -281.57 70.133 -280.84 71.129 -279.76 71.698 C -279.24 71.94 -278.77 71.986 -278.21 71.979 C -278.12 71.977 -278.03 71.976 -277.95 71.975 C -277.13 71.946 -276.65 71.766 -276.09 71.222 C -276 71.159 -275.96 71.097 -275.88 71.033 C -274.11 69.322 -273.8 66.424 -273.54 64.153 C -273.33 62.025 -272.98 59.945 -272.46 57.866 C -272.42 57.69 -272.42 57.69 -272.38 57.51 C -271.47 54.016 -270.18 50.62 -268.92 47.235 C -265.94 39.085 -262.97 29.098 -266.98 20.779 C -267.46 19.78 -268.1 18.883 -268.79 18.025 C -268.88 17.928 -268.97 17.832 -269.05 17.732 C -271.08 15.42 -274.06 14.011 -277.13 13.687 C -281.23 13.362 -284.9 13.893 -288.83 14.979 C -290.03 15.298 -290.99 15.113 -292.24 14.799 C -292.5 14.726 -292.8 14.652 -293.1 14.579 C -293.23 14.543 -293.4 14.507 -293.53 14.471 C -294.05 14.344 -294.52 14.224 -295.04 14.108 C -295.26 14.059 -295.26 14.059 -295.48 14.009 C -296.55 13.782 -297.63 13.644 -298.76 13.608 C -298.89 13.604 -299.02 13.599 -299.15 13.595 C -301.95 13.519 -304.76 13.617 -307.3 14.829 Z" fill="#FDFDFD" style="stroke-width: 1;"/>
    <path d="M -388.99 11.237 C -388.29 11.7 -387.78 12.202 -387.35 12.923 C -387.26 13.087 -387.17 13.251 -387.04 13.415 C -387 13.498 -386.96 13.581 -386.91 13.668 C -386.65 14.058 -386.4 14.439 -386.14 14.821 C -385.57 15.639 -385.06 16.46 -384.5 17.283 C -383.98 18.083 -383.46 18.883 -382.94 19.68 C -382.34 20.602 -381.69 21.527 -381.09 22.452 C -380.65 23.128 -380.22 23.801 -379.75 24.474 C -379.14 25.396 -378.54 26.321 -377.93 27.247 C -377.5 27.922 -377.03 28.597 -376.6 29.269 C -375.99 30.19 -375.39 31.115 -374.78 32.041 C -374.31 32.717 -373.88 33.391 -373.44 34.064 C -372.8 34.986 -372.19 35.911 -371.59 36.835 C -371.16 37.512 -370.72 38.185 -370.25 38.858 C -369.65 39.78 -369.04 40.705 -368.44 41.631 C -368 42.306 -367.53 42.981 -367.1 43.653 C -366.54 44.472 -366.02 45.293 -365.46 46.115 C -365.37 46.235 -365.28 46.356 -365.24 46.481 C -365.15 46.597 -365.07 46.713 -364.98 46.832 C -364.9 46.942 -364.85 47.052 -364.77 47.166 C -364.59 47.448 -364.42 47.733 -364.25 48.02 C -364.16 48.142 -364.08 48.265 -363.99 48.391 C -363.9 48.391 -363.82 48.391 -363.73 48.391 C -363.56 48.144 -363.43 47.898 -363.26 47.641 C -363.17 47.474 -363.04 47.305 -362.95 47.138 C -362.87 47.045 -362.82 46.954 -362.78 46.859 C -362.43 46.321 -362.05 45.79 -361.7 45.259 C -361.53 45.033 -361.4 44.807 -361.23 44.58 C -361.18 44.472 -361.1 44.363 -361.01 44.25 C -360.71 43.81 -360.45 43.367 -360.15 42.925 C -360.1 42.848 -360.02 42.77 -359.97 42.691 C -359.89 42.537 -359.76 42.383 -359.67 42.229 C -359.41 41.829 -359.15 41.429 -358.9 41.027 C -358.77 40.865 -358.68 40.705 -358.55 40.542 C -350.56 28.535 -350.56 28.535 -342.4 16.284 C -342.36 16.204 -342.32 16.123 -342.27 16.041 C -342.14 15.881 -342.06 15.719 -341.93 15.558 C -341.67 15.143 -341.37 14.73 -341.11 14.315 C -340.81 13.839 -340.46 13.362 -340.16 12.888 C -340.07 12.77 -339.99 12.653 -339.9 12.533 C -339.47 11.852 -338.95 11.263 -338.17 10.947 C -337.14 10.826 -336.19 10.886 -335.37 11.518 C -334.55 12.293 -334.37 13.089 -334.37 14.148 C -334.37 14.251 -334.37 14.353 -334.37 14.46 C -334.37 14.807 -334.37 15.155 -334.37 15.501 C -334.37 15.752 -334.37 16.003 -334.37 16.254 C -334.37 16.944 -334.37 17.634 -334.37 18.325 C -334.37 18.992 -334.37 19.66 -334.37 20.328 C -334.37 21.862 -334.37 23.397 -334.37 24.931 C -334.37 26.115 -334.37 27.3 -334.37 28.485 C -334.37 28.826 -334.37 29.168 -334.37 29.508 C -334.37 29.635 -334.37 29.635 -334.37 29.765 C -334.37 32.15 -334.37 34.534 -334.37 36.919 C -334.37 37.053 -334.37 37.053 -334.37 37.192 C -334.37 37.647 -334.37 38.103 -334.37 38.558 C -334.37 38.649 -334.37 38.74 -334.37 38.832 C -334.37 39.016 -334.37 39.199 -334.37 39.382 C -334.37 42.23 -334.37 45.078 -334.37 47.926 C -334.37 51.125 -334.37 54.324 -334.37 57.524 C -334.37 57.864 -334.37 58.206 -334.37 58.547 C -334.37 58.631 -334.37 58.715 -334.37 58.802 C -334.37 60.154 -334.37 61.506 -334.37 62.858 C -334.33 64.215 -334.33 65.574 -334.33 66.933 C -334.37 67.669 -334.37 68.405 -334.33 69.141 C -334.33 69.814 -334.33 70.488 -334.33 71.162 C -334.33 71.405 -334.33 71.649 -334.33 71.893 C -334.33 72.225 -334.33 72.556 -334.33 72.887 C -334.33 73.029 -334.33 73.029 -334.33 73.174 C -334.37 73.96 -334.59 74.641 -335.11 75.252 C -335.93 75.914 -336.62 76.202 -337.7 76.17 C -338.56 76.075 -339.12 75.698 -339.73 75.123 C -340.2 74.481 -340.33 73.815 -340.33 73.05 C -340.33 72.962 -340.33 72.874 -340.33 72.784 C -340.33 72.491 -340.33 72.199 -340.33 71.907 C -340.33 71.694 -340.33 71.482 -340.33 71.269 C -340.33 70.687 -340.33 70.105 -340.33 69.523 C -340.33 68.894 -340.33 68.267 -340.33 67.638 C -340.33 66.549 -340.33 65.462 -340.33 64.374 C -340.33 62.799 -340.33 61.226 -340.33 59.652 C -340.33 57.099 -340.33 54.547 -340.37 51.994 C -340.37 49.514 -340.37 47.034 -340.37 44.554 C -340.37 44.439 -340.37 44.439 -340.37 44.322 C -340.37 43.555 -340.37 42.787 -340.37 42.02 C -340.37 35.581 -340.37 29.143 -340.37 22.704 C -340.59 23.015 -340.81 23.325 -341.02 23.635 C -341.06 23.723 -341.11 23.809 -341.19 23.899 C -341.63 24.553 -342.06 25.208 -342.49 25.866 C -342.62 26.08 -342.75 26.295 -342.92 26.51 C -342.96 26.616 -343.05 26.723 -343.14 26.835 C -343.44 27.36 -343.78 27.886 -344.13 28.412 C -344.3 28.623 -344.43 28.832 -344.56 29.041 C -355.23 45.365 -355.23 45.365 -355.44 45.68 C -355.57 45.888 -355.7 46.098 -355.87 46.307 C -356.22 46.834 -356.56 47.361 -356.91 47.889 C -357.51 48.873 -358.16 49.858 -358.81 50.845 C -358.98 51.111 -359.15 51.378 -359.33 51.644 C -359.46 51.844 -359.59 52.044 -359.72 52.244 C -360.15 52.885 -360.58 53.524 -360.97 54.161 C -361.14 54.41 -361.31 54.659 -361.44 54.91 C -361.96 55.692 -362.43 56.247 -363.39 56.496 C -364.16 56.623 -364.94 56.462 -365.59 56.024 C -366.19 55.536 -366.58 54.962 -367.01 54.305 C -367.05 54.194 -367.14 54.084 -367.23 53.969 C -367.36 53.742 -367.49 53.514 -367.66 53.286 C -367.96 52.805 -368.26 52.328 -368.56 51.851 C -368.69 51.673 -368.78 51.496 -368.91 51.318 C -369.26 50.78 -369.6 50.242 -369.95 49.703 C -370.34 49.165 -370.68 48.627 -371.03 48.088 C -371.63 47.123 -372.28 46.158 -372.88 45.194 C -373.57 44.143 -374.26 43.09 -374.95 42.035 C -375.26 41.585 -375.56 41.135 -375.82 40.685 C -376.16 40.147 -376.51 39.609 -376.9 39.071 C -377.5 38.104 -378.15 37.139 -378.75 36.176 C -379.44 35.125 -380.14 34.071 -380.83 33.017 C -381.13 32.566 -381.39 32.116 -381.69 31.667 C -382.03 31.129 -382.38 30.59 -382.73 30.052 C -383.46 28.98 -384.15 27.909 -384.84 26.839 C -385.36 26.057 -385.88 25.272 -386.35 24.487 C -386.7 24.015 -387 23.543 -387.3 23.073 C -387.35 22.961 -387.43 22.849 -387.52 22.734 C -387.6 22.607 -387.6 22.607 -387.69 22.477 C -387.69 22.585 -387.69 22.693 -387.69 22.804 C -387.69 29.208 -387.69 35.61 -387.69 42.014 C -387.69 42.783 -387.73 43.551 -387.73 44.32 C -387.73 44.397 -387.73 44.473 -387.73 44.552 C -387.73 47.03 -387.73 49.509 -387.73 51.988 C -387.73 54.608 -387.73 57.227 -387.73 59.847 C -387.73 61.417 -387.73 62.986 -387.73 64.556 C -387.73 65.631 -387.73 66.707 -387.73 67.782 C -387.73 68.404 -387.73 69.024 -387.73 69.646 C -387.73 70.214 -387.73 70.782 -387.73 71.35 C -387.73 71.556 -387.73 71.762 -387.73 71.967 C -387.73 74.459 -387.73 74.459 -388.73 75.477 C -389.42 76.047 -390.02 76.206 -390.89 76.166 C -391.84 76.063 -392.27 75.722 -392.87 75.041 C -393.35 74.404 -393.35 73.783 -393.35 73.042 C -393.35 72.937 -393.35 72.834 -393.35 72.727 C -393.35 72.38 -393.35 72.031 -393.35 71.683 C -393.35 71.431 -393.35 71.18 -393.35 70.928 C -393.35 70.236 -393.35 69.542 -393.35 68.85 C -393.35 68.18 -393.35 67.51 -393.35 66.84 C -393.35 65.215 -393.35 63.591 -393.35 61.966 C -393.35 61.882 -393.35 61.799 -393.35 61.711 C -393.35 61.627 -393.35 61.543 -393.35 61.456 C -393.35 60.522 -393.35 59.588 -393.35 58.653 C -393.35 55.833 -393.35 53.011 -393.35 50.19 C -393.35 50.1 -393.35 50.009 -393.35 49.917 C -393.35 49.55 -393.35 49.185 -393.35 48.819 C -393.35 48.543 -393.35 48.269 -393.35 47.993 C -393.35 47.903 -393.35 47.812 -393.35 47.717 C -393.35 44.86 -393.39 42.002 -393.39 39.144 C -393.39 35.933 -393.39 32.723 -393.39 29.513 C -393.39 29.17 -393.39 28.828 -393.39 28.485 C -393.39 28.401 -393.39 28.317 -393.39 28.23 C -393.39 26.873 -393.39 25.516 -393.39 24.16 C -393.39 22.797 -393.39 21.433 -393.39 20.07 C -393.39 19.332 -393.39 18.592 -393.39 17.854 C -393.39 17.177 -393.39 16.502 -393.39 15.826 C -393.39 15.582 -393.39 15.337 -393.39 15.092 C -393.39 12.554 -393.39 12.554 -392.53 11.643 C -391.53 10.751 -390.19 10.692 -388.99 11.237 Z" fill="#FEFEFE" style="stroke-width: 1;"/>
    <path d="M -653.97 10.903 C -653.87 10.903 -653.77 10.902 -653.67 10.902 C -653.37 10.901 -652.97 10.901 -652.67 10.903 C -652.37 10.902 -652.17 10.901 -651.87 10.901 C -651.17 10.899 -650.57 10.9 -649.87 10.901 C -649.17 10.902 -648.37 10.901 -647.67 10.901 C -646.47 10.9 -645.27 10.901 -644.07 10.902 C -642.67 10.904 -641.27 10.903 -639.87 10.902 C -638.77 10.9 -637.47 10.9 -636.27 10.901 C -635.57 10.901 -634.87 10.901 -634.17 10.9 C -626.67 10.89 -619.77 11.761 -614.07 16.932 C -613.87 17.179 -613.57 17.413 -613.27 17.646 C -612.77 18.043 -612.47 18.474 -612.07 18.937 C -611.97 18.995 -611.97 19.052 -611.87 19.112 C -607.07 24.713 -604.77 32.165 -604.17 39.372 C -604.17 39.563 -604.17 39.563 -604.17 39.759 C -604.07 41.033 -603.97 42.304 -603.97 43.582 C -603.97 43.69 -603.97 43.798 -603.97 43.909 C -604.07 52.658 -606.17 62.534 -612.67 68.986 C -612.87 69.179 -613.07 69.375 -613.27 69.569 C -617.07 73.422 -622.07 75.442 -627.57 76.016 C -627.67 76.032 -627.67 76.032 -627.77 76.047 C -628.97 76.165 -630.27 76.149 -631.47 76.149 C -631.77 76.15 -631.97 76.15 -632.27 76.151 C -632.97 76.152 -633.67 76.154 -634.27 76.154 C -634.77 76.154 -635.17 76.155 -635.57 76.156 C -636.97 76.157 -638.37 76.158 -639.67 76.158 C -641.27 76.159 -642.87 76.161 -644.37 76.164 C -645.57 76.166 -646.77 76.168 -647.97 76.168 C -648.77 76.168 -649.47 76.168 -650.17 76.17 C -650.87 76.173 -651.57 76.173 -652.27 76.172 C -652.47 76.172 -652.67 76.173 -652.97 76.174 C -653.27 76.175 -653.67 76.174 -653.97 76.173 C -654.07 76.174 -654.17 76.175 -654.27 76.176 C -655.07 76.169 -655.67 76.031 -656.37 75.587 C -656.47 75.478 -656.47 75.478 -656.57 75.368 C -656.67 75.296 -656.67 75.225 -656.77 75.152 C -657.27 74.448 -657.37 73.744 -657.37 72.901 C -657.37 72.799 -657.37 72.696 -657.37 72.589 C -657.37 72.242 -657.37 71.895 -657.37 71.548 C -657.37 71.298 -657.37 71.046 -657.37 70.795 C -657.37 70.105 -657.37 69.415 -657.37 68.725 C -657.37 68.058 -657.37 67.39 -657.37 66.722 C -657.37 65.273 -657.37 63.823 -657.37 62.373 C -657.37 61.104 -657.37 59.836 -657.37 58.567 C -657.37 58.483 -657.37 58.398 -657.37 58.312 C -657.37 57.97 -657.37 57.628 -657.37 57.287 C -657.37 54.082 -657.37 50.878 -657.37 47.672 C -657.37 44.826 -657.37 41.978 -657.37 39.13 C -657.37 35.932 -657.37 32.733 -657.37 29.534 C -657.37 29.193 -657.37 28.852 -657.37 28.511 C -657.37 28.427 -657.37 28.344 -657.37 28.257 C -657.37 26.988 -657.37 25.721 -657.37 24.453 C -657.37 23.011 -657.37 21.569 -657.37 20.128 C -657.37 19.393 -657.37 18.656 -657.37 17.92 C -657.37 17.247 -657.37 16.574 -657.37 15.901 C -657.37 15.657 -657.37 15.413 -657.37 15.169 C -657.37 14.838 -657.37 14.507 -657.37 14.176 C -657.37 14.081 -657.37 13.986 -657.37 13.888 C -657.37 13.153 -657.17 12.534 -656.77 11.926 C -656.67 11.855 -656.67 11.783 -656.57 11.71 C -656.47 11.602 -656.47 11.602 -656.37 11.49 C -655.57 10.981 -654.87 10.896 -653.97 10.903 Z M -651.47 16.54 C -651.47 34.36 -651.47 52.178 -651.47 70.537 C -635.77 72.012 -635.77 72.012 -619.27 66.884 C -619.27 66.836 -619.17 66.788 -619.07 66.737 C -613.47 62.243 -611.07 55.302 -610.27 48.391 C -609.37 39.956 -610.47 30.377 -615.97 23.505 C -616.47 23.025 -616.87 22.579 -617.27 22.135 C -617.47 21.976 -617.47 21.976 -617.57 21.816 C -620.87 18.479 -625.37 16.99 -629.97 16.54 C -637.07 16.54 -644.17 16.54 -651.47 16.54 Z" fill="#FEFEFE" style="stroke-width: 1;"/>
    <path d="M -534.47 11.29 C -533.67 11.967 -533.07 12.913 -532.47 13.782 C -532.07 14.317 -531.67 14.835 -531.37 15.342 C -530.87 15.928 -530.37 16.531 -529.97 17.147 C -529.47 17.916 -528.87 18.665 -528.27 19.404 C -527.87 20.02 -527.37 20.647 -526.92 21.278 C -526.49 21.872 -526.06 22.461 -525.63 23.047 C -525.11 23.71 -524.63 24.377 -524.16 25.045 C -523.42 26.06 -522.69 27.066 -521.91 28.071 C -521.14 29.154 -520.32 30.241 -519.54 31.335 C -519.02 32.02 -518.5 32.699 -518.03 33.376 C -517.6 33.954 -517.16 34.532 -516.73 35.111 C -516.34 35.651 -515.95 36.188 -515.52 36.725 C -515.01 37.474 -514.44 38.228 -513.88 38.984 C -513.41 39.669 -512.89 40.347 -512.37 41.025 C -511.98 41.603 -511.51 42.18 -511.12 42.76 C -510.69 43.3 -510.3 43.837 -509.91 44.374 C -509.44 45.044 -508.92 45.716 -508.44 46.392 C -507.71 47.407 -506.93 48.413 -506.2 49.418 C -505.38 50.502 -504.6 51.588 -503.78 52.684 C -503.31 53.367 -502.79 54.046 -502.31 54.724 C -501.88 55.301 -501.45 55.88 -501.02 56.46 C -500.63 56.999 -500.24 57.536 -499.81 58.072 C -499.33 58.743 -498.82 59.415 -498.34 60.092 C -497.65 61.017 -497 61.935 -496.31 62.851 C -495.97 63.317 -495.62 63.785 -495.28 64.251 C -495.19 64.339 -495.15 64.425 -495.06 64.515 C -495.02 64.597 -494.93 64.678 -494.89 64.761 C -494.84 64.832 -494.8 64.903 -494.72 64.977 C -494.59 65.154 -494.46 65.335 -494.37 65.514 C -494.37 65.403 -494.37 65.293 -494.37 65.178 C -494.33 58.605 -494.33 52.033 -494.33 45.46 C -494.33 44.671 -494.33 43.882 -494.33 43.093 C -494.33 43.014 -494.33 42.936 -494.33 42.855 C -494.33 40.31 -494.33 37.766 -494.33 35.221 C -494.33 32.532 -494.33 29.843 -494.33 27.154 C -494.33 25.542 -494.33 23.932 -494.33 22.321 C -494.33 21.217 -494.33 20.112 -494.33 19.008 C -494.33 18.37 -494.33 17.733 -494.33 17.095 C -494.33 16.512 -494.33 15.929 -494.33 15.345 C -494.33 15.134 -494.33 14.923 -494.33 14.712 C -494.33 12.63 -494.33 12.63 -493.64 11.746 C -493.38 11.489 -493.38 11.489 -493.12 11.339 C -493.03 11.288 -492.94 11.236 -492.81 11.182 C -492.17 10.858 -491.43 10.84 -490.7 11.004 C -489.97 11.279 -489.53 11.798 -489.15 12.426 C -488.89 13.077 -488.93 13.8 -488.93 14.489 C -488.93 14.59 -488.93 14.693 -488.93 14.797 C -488.93 15.138 -488.93 15.479 -488.93 15.821 C -488.93 16.067 -488.93 16.314 -488.93 16.562 C -488.93 17.24 -488.93 17.919 -488.93 18.598 C -488.93 19.33 -488.93 20.062 -488.93 20.794 C -488.93 22.479 -488.93 24.163 -488.93 25.847 C -488.93 26.679 -488.93 27.512 -488.93 28.344 C -488.93 31.195 -488.93 34.045 -488.93 36.896 C -488.93 37.075 -488.93 37.254 -488.93 37.432 C -488.93 37.612 -488.93 37.791 -488.93 37.971 C -488.93 38.33 -488.93 38.69 -488.93 39.049 C -488.93 39.183 -488.93 39.183 -488.93 39.32 C -488.93 42.212 -488.93 45.103 -488.93 47.995 C -488.93 51.054 -488.93 54.112 -488.93 57.171 C -488.93 57.507 -488.93 57.842 -488.93 58.178 C -488.93 58.261 -488.93 58.344 -488.93 58.429 C -488.93 59.759 -488.93 61.089 -488.93 62.418 C -488.93 63.756 -488.93 65.093 -488.93 66.429 C -488.93 67.153 -488.93 67.877 -488.93 68.601 C -488.89 69.265 -488.89 69.928 -488.93 70.591 C -488.93 70.83 -488.93 71.069 -488.89 71.31 C -488.89 74.491 -488.89 74.491 -489.79 75.401 C -490.57 76.012 -491.3 76.173 -492.25 76.164 C -493.03 76.088 -493.68 75.725 -494.24 75.217 C -494.5 74.896 -494.72 74.558 -494.93 74.218 C -495.45 73.509 -495.92 72.814 -496.44 72.135 C -496.96 71.476 -497.48 70.803 -497.95 70.116 C -498.38 69.499 -498.82 68.896 -499.29 68.312 C -499.81 67.636 -500.33 66.935 -500.8 66.225 C -501.23 65.632 -501.66 65.056 -502.1 64.487 C -502.62 63.827 -503.09 63.154 -503.56 62.468 C -504 61.851 -504.43 61.247 -504.9 60.663 C -505.46 59.988 -505.94 59.286 -506.46 58.576 C -506.85 57.984 -507.28 57.407 -507.71 56.838 C -508.23 56.18 -508.75 55.506 -509.22 54.819 C -509.65 54.203 -510.08 53.6 -510.56 53.014 C -511.08 52.34 -511.6 51.637 -512.07 50.927 C -512.5 50.336 -512.93 49.758 -513.37 49.19 C -513.88 48.531 -514.36 47.857 -514.83 47.171 C -515.27 46.554 -515.7 45.951 -516.17 45.365 C -516.73 44.691 -517.21 43.989 -517.68 43.278 C -518.11 42.687 -518.55 42.11 -518.98 41.541 C -519.5 40.882 -520.01 40.209 -520.49 39.523 C -520.92 38.906 -521.35 38.302 -521.83 37.717 C -522.35 37.042 -522.82 36.34 -523.34 35.63 C -523.77 35.038 -524.16 34.461 -524.63 33.892 C -525.15 33.234 -525.63 32.56 -526.1 31.874 C -526.53 31.257 -526.96 30.653 -527.47 30.068 C -527.97 29.393 -528.47 28.692 -528.97 27.981 C -529.37 27.39 -529.77 26.813 -530.27 26.245 C -530.87 25.496 -531.37 24.73 -531.97 23.951 C -532.27 23.461 -532.67 22.978 -532.97 22.501 C -533.07 22.389 -533.17 22.277 -533.27 22.162 C -533.27 22.077 -533.37 21.993 -533.47 21.907 C -533.47 22.017 -533.47 22.126 -533.47 22.239 C -533.47 28.76 -533.47 35.279 -533.47 41.798 C -533.47 42.58 -533.47 43.363 -533.47 44.145 C -533.47 44.223 -533.47 44.301 -533.47 44.381 C -533.47 46.905 -533.47 49.429 -533.47 51.953 C -533.47 54.62 -533.47 57.288 -533.47 59.955 C -533.47 61.553 -533.47 63.151 -533.47 64.749 C -533.47 65.844 -533.47 66.939 -533.47 68.034 C -533.47 68.667 -533.47 69.298 -533.47 69.931 C -533.47 70.51 -533.47 71.088 -533.47 71.667 C -533.47 71.876 -533.47 72.085 -533.47 72.295 C -533.47 72.58 -533.47 72.864 -533.47 73.148 C -533.47 73.231 -533.47 73.311 -533.47 73.396 C -533.57 74.11 -533.67 74.679 -534.07 75.296 C -534.67 75.87 -535.37 76.165 -536.27 76.202 C -536.97 76.168 -537.57 75.988 -538.07 75.56 C -538.67 74.857 -538.87 74.209 -538.87 73.308 C -538.87 73.152 -538.87 73.152 -538.87 72.993 C -538.87 72.643 -538.87 72.292 -538.87 71.941 C -538.87 71.69 -538.87 71.437 -538.87 71.185 C -538.87 70.488 -538.87 69.792 -538.87 69.096 C -538.87 68.423 -538.87 67.75 -538.87 67.076 C -538.87 65.272 -538.87 63.468 -538.87 61.664 C -538.87 60.811 -538.87 59.957 -538.87 59.105 C -538.87 56.185 -538.87 53.265 -538.87 50.345 C -538.87 50.162 -538.87 49.979 -538.87 49.795 C -538.87 49.611 -538.87 49.428 -538.87 49.244 C -538.87 48.875 -538.87 48.506 -538.87 48.138 C -538.87 48.046 -538.87 47.955 -538.87 47.86 C -538.87 44.896 -538.87 41.931 -538.87 38.966 C -538.87 35.833 -538.87 32.7 -538.87 29.567 C -538.87 29.223 -538.87 28.879 -538.87 28.535 C -538.87 28.449 -538.87 28.365 -538.87 28.278 C -538.87 26.914 -538.87 25.551 -538.87 24.188 C -538.87 22.817 -538.87 21.447 -538.87 20.077 C -538.87 19.334 -538.87 18.592 -538.87 17.85 C -538.87 17.17 -538.87 16.491 -538.87 15.811 C -538.87 15.565 -538.87 15.319 -538.87 15.073 C -538.87 14.739 -538.87 14.405 -538.87 14.07 C -538.87 13.926 -538.87 13.926 -538.87 13.78 C -538.87 13.056 -538.67 12.442 -538.27 11.837 C -537.27 10.863 -535.77 10.569 -534.47 11.29 Z" fill="#FEFEFE" style="stroke-width: 1;"/>
    <path d="M -587.57 10.918 C -587.37 10.917 -587.27 10.917 -587.07 10.916 C -586.67 10.916 -586.27 10.916 -585.87 10.916 C -585.47 10.916 -585.07 10.914 -584.67 10.913 C -583.77 10.912 -582.97 10.912 -582.17 10.912 C -581.47 10.912 -580.77 10.912 -580.07 10.912 C -579.97 10.912 -579.97 10.912 -579.77 10.912 C -579.57 10.912 -579.37 10.912 -579.17 10.911 C -577.37 10.91 -575.57 10.91 -573.67 10.911 C -571.97 10.912 -570.27 10.91 -568.67 10.909 C -566.87 10.907 -565.17 10.904 -563.47 10.905 C -562.47 10.905 -561.47 10.905 -560.47 10.903 C -559.67 10.902 -558.87 10.902 -558.07 10.903 C -557.57 10.904 -557.17 10.904 -556.77 10.903 C -556.37 10.901 -555.87 10.903 -555.37 10.904 C -555.27 10.903 -555.07 10.903 -554.97 10.902 C -554.07 10.908 -553.17 11.02 -552.47 11.675 C -551.87 12.414 -551.57 13.17 -551.67 14.13 C -551.77 14.956 -552.17 15.515 -552.77 16.051 C -553.57 16.529 -554.37 16.59 -555.27 16.582 C -555.37 16.582 -555.47 16.582 -555.67 16.583 C -556.07 16.583 -556.57 16.582 -556.97 16.58 C -557.27 16.58 -557.57 16.58 -557.87 16.58 C -558.57 16.58 -559.17 16.578 -559.87 16.577 C -560.77 16.574 -561.77 16.573 -562.77 16.573 C -564.27 16.572 -565.87 16.57 -567.37 16.566 C -568.97 16.564 -570.47 16.561 -571.97 16.559 C -572.07 16.559 -572.17 16.559 -572.27 16.559 C -572.97 16.558 -573.77 16.558 -574.47 16.557 C -578.07 16.554 -581.67 16.547 -585.27 16.54 C -585.27 24.226 -585.27 31.911 -585.27 39.829 C -583.37 39.824 -581.37 39.818 -579.37 39.812 C -578.07 39.81 -576.87 39.808 -575.57 39.807 C -574.97 39.806 -574.37 39.805 -573.67 39.803 C -573.57 39.803 -573.47 39.803 -573.37 39.803 C -572.07 39.801 -570.77 39.798 -569.47 39.793 C -568.07 39.789 -566.77 39.787 -565.37 39.785 C -564.67 39.785 -563.87 39.784 -563.07 39.781 C -562.37 39.778 -561.67 39.776 -560.97 39.778 C -560.77 39.778 -560.47 39.776 -560.17 39.774 C -559.77 39.772 -559.47 39.773 -559.07 39.774 C -558.97 39.773 -558.87 39.771 -558.77 39.77 C -557.97 39.778 -557.37 40 -556.67 40.527 C -556.07 41.267 -555.77 41.884 -555.77 42.873 C -555.87 43.662 -556.17 44.222 -556.77 44.737 C -556.87 44.82 -556.97 44.902 -557.07 44.988 C -557.77 45.461 -558.57 45.455 -559.47 45.45 C -559.57 45.451 -559.57 45.451 -559.77 45.451 C -560.17 45.451 -560.47 45.45 -560.87 45.448 C -561.17 45.448 -561.37 45.448 -561.67 45.448 C -562.37 45.448 -563.17 45.447 -563.87 45.445 C -564.57 45.444 -565.37 45.444 -566.17 45.444 C -567.37 45.444 -568.67 45.442 -569.97 45.439 C -571.17 45.438 -572.47 45.436 -573.77 45.435 C -573.97 45.435 -573.97 45.435 -574.07 45.435 C -574.77 45.435 -575.47 45.434 -576.17 45.434 C -579.17 45.432 -582.27 45.427 -585.27 45.423 C -585.27 53.711 -585.27 61.998 -585.27 70.537 C -581.97 70.529 -581.97 70.529 -578.47 70.521 C -577.07 70.519 -575.57 70.516 -574.17 70.514 C -573.47 70.514 -572.77 70.513 -571.97 70.512 C -571.77 70.512 -571.77 70.512 -571.67 70.512 C -570.17 70.51 -568.67 70.506 -567.17 70.502 C -565.57 70.497 -564.07 70.495 -562.47 70.494 C -561.57 70.494 -560.57 70.492 -559.57 70.488 C -558.87 70.485 -558.17 70.485 -557.37 70.486 C -557.07 70.486 -556.77 70.485 -556.47 70.483 C -556.07 70.481 -555.67 70.482 -555.27 70.482 C -555.07 70.481 -555.07 70.481 -554.97 70.478 C -554.07 70.486 -553.27 70.672 -552.57 71.239 C -551.87 72.062 -551.67 72.647 -551.67 73.729 C -551.77 74.554 -552.17 75.119 -552.77 75.641 C -553.57 76.147 -554.27 76.181 -555.27 76.175 C -555.37 76.175 -555.57 76.175 -555.67 76.176 C -556.07 76.177 -556.47 76.177 -556.87 76.176 C -557.27 76.175 -557.77 76.176 -558.17 76.177 C -558.97 76.178 -559.87 76.178 -560.67 76.177 C -561.37 76.177 -562.07 76.176 -562.77 76.177 C -562.87 76.177 -562.87 76.177 -562.97 76.177 C -563.27 76.177 -563.47 76.177 -563.57 76.177 C -565.47 76.178 -567.37 76.177 -569.17 76.175 C -570.77 76.174 -572.37 76.174 -573.97 76.176 C -575.77 76.177 -577.57 76.178 -579.47 76.177 C -579.67 76.177 -579.87 76.177 -580.07 76.177 C -580.17 76.177 -580.17 76.177 -580.37 76.177 C -580.97 76.176 -581.67 76.177 -582.37 76.177 C -583.17 76.178 -584.07 76.178 -584.87 76.176 C -585.27 76.176 -585.77 76.175 -586.07 76.176 C -586.57 76.177 -587.07 76.176 -587.47 76.175 C -587.67 76.175 -587.67 76.175 -587.97 76.177 C -588.87 76.17 -589.57 76.037 -590.27 75.439 C -590.37 75.352 -590.37 75.352 -590.47 75.264 C -591.37 74.14 -591.27 72.771 -591.17 71.417 C -591.17 71.167 -591.17 70.917 -591.17 70.666 C -591.17 69.979 -591.17 69.294 -591.17 68.607 C -591.17 67.866 -591.17 67.126 -591.17 66.385 C -591.27 65.019 -591.27 63.652 -591.17 62.286 C -591.17 61.022 -591.17 59.76 -591.17 58.497 C -591.17 58.413 -591.17 58.33 -591.17 58.243 C -591.17 57.903 -591.17 57.563 -591.17 57.223 C -591.27 54.033 -591.17 50.843 -591.17 47.652 C -591.17 44.819 -591.17 41.986 -591.17 39.152 C -591.17 35.968 -591.27 32.783 -591.17 29.599 C -591.17 29.26 -591.17 28.92 -591.17 28.581 C -591.17 28.497 -591.17 28.413 -591.17 28.327 C -591.17 27.066 -591.17 25.804 -591.17 24.542 C -591.27 23.107 -591.27 21.673 -591.17 20.238 C -591.17 19.505 -591.17 18.773 -591.17 18.042 C -591.17 17.371 -591.17 16.701 -591.17 16.03 C -591.17 15.788 -591.17 15.546 -591.17 15.303 C -591.27 12.741 -591.27 12.741 -590.47 11.785 C -590.37 11.716 -590.27 11.646 -590.17 11.575 C -590.07 11.503 -589.97 11.431 -589.87 11.357 C -589.17 10.873 -588.37 10.914 -587.57 10.918 Z" fill="#FEFEFE" style="stroke-width: 1;"/>
    <path d="M -473.39 10.903 C -473.22 10.903 -473.04 10.903 -472.83 10.902 C -472.35 10.901 -471.83 10.901 -471.31 10.902 C -470.75 10.903 -470.24 10.902 -469.67 10.901 C -468.6 10.899 -467.52 10.9 -466.44 10.901 C -465.57 10.901 -464.67 10.901 -463.8 10.901 C -463.67 10.901 -463.54 10.901 -463.41 10.901 C -463.16 10.901 -462.94 10.901 -462.68 10.901 C -460.31 10.9 -457.93 10.901 -455.56 10.903 C -453.53 10.904 -451.46 10.904 -449.43 10.902 C -447.05 10.901 -444.72 10.9 -442.35 10.901 C -442.09 10.901 -441.83 10.901 -441.57 10.901 C -441.4 10.901 -441.4 10.901 -441.18 10.901 C -440.32 10.901 -439.45 10.901 -438.59 10.9 C -437.51 10.899 -436.43 10.9 -435.4 10.901 C -434.84 10.902 -434.27 10.903 -433.76 10.901 C -433.24 10.901 -432.76 10.901 -432.24 10.903 C -432.07 10.903 -431.9 10.903 -431.73 10.902 C -430.6 10.898 -429.78 10.922 -428.83 11.546 C -428.23 12.155 -427.93 12.798 -427.88 13.658 C -427.93 14.362 -428.1 14.879 -428.49 15.477 C -429.27 16.229 -430.13 16.441 -431.21 16.44 C -431.34 16.44 -431.34 16.44 -431.42 16.44 C -431.73 16.44 -431.99 16.44 -432.24 16.439 C -432.42 16.439 -432.63 16.439 -432.81 16.439 C -433.32 16.439 -433.84 16.439 -434.36 16.438 C -434.92 16.437 -435.44 16.437 -436 16.437 C -436.99 16.437 -438.03 16.436 -439.07 16.435 C -440.23 16.434 -441.4 16.432 -442.56 16.432 C -444.98 16.431 -447.36 16.429 -449.77 16.427 C -449.77 16.548 -449.77 16.67 -449.77 16.794 C -449.73 22.141 -449.73 27.487 -449.73 32.833 C -449.73 32.916 -449.73 32.996 -449.73 33.08 C -449.73 34.838 -449.73 36.598 -449.73 38.357 C -449.73 39.22 -449.73 40.082 -449.73 40.945 C -449.73 41.032 -449.73 41.117 -449.73 41.206 C -449.73 43.989 -449.73 46.771 -449.73 49.554 C -449.73 52.413 -449.69 55.273 -449.69 58.133 C -449.69 58.536 -449.69 58.94 -449.69 59.345 C -449.69 59.464 -449.69 59.464 -449.69 59.585 C -449.69 60.865 -449.69 62.144 -449.69 63.424 C -449.69 64.71 -449.69 65.996 -449.69 67.283 C -449.69 67.98 -449.69 68.677 -449.69 69.375 C -449.69 70.012 -449.69 70.65 -449.69 71.289 C -449.69 71.519 -449.69 71.75 -449.69 71.981 C -449.69 74.379 -449.69 74.379 -450.55 75.319 C -451.2 75.916 -451.89 76.146 -452.75 76.174 C -453.62 76.148 -454.3 75.923 -454.91 75.332 C -455.51 74.577 -455.64 73.915 -455.64 72.979 C -455.64 72.881 -455.64 72.783 -455.64 72.682 C -455.64 72.354 -455.64 72.025 -455.64 71.695 C -455.64 71.457 -455.64 71.219 -455.64 70.982 C -455.64 70.327 -455.64 69.672 -455.64 69.018 C -455.64 68.313 -455.64 67.607 -455.64 66.902 C -455.64 65.68 -455.64 64.457 -455.64 63.234 C -455.64 61.952 -455.64 60.67 -455.64 59.387 C -455.64 59.307 -455.64 59.228 -455.64 59.147 C -455.64 58.741 -455.64 58.336 -455.64 57.932 C -455.64 55.064 -455.64 52.196 -455.64 49.328 C -455.64 46.542 -455.64 43.757 -455.64 40.971 C -455.64 40.885 -455.64 40.799 -455.64 40.71 C -455.64 39.848 -455.64 38.986 -455.64 38.123 C -455.64 36.367 -455.64 34.61 -455.64 32.854 C -455.64 32.732 -455.64 32.732 -455.64 32.609 C -455.64 27.214 -455.64 21.82 -455.64 16.427 C -455.77 16.427 -455.77 16.427 -455.9 16.427 C -458.32 16.432 -460.69 16.436 -463.11 16.438 C -464.28 16.439 -465.4 16.441 -466.57 16.444 C -467.6 16.446 -468.6 16.448 -469.59 16.448 C -470.15 16.448 -470.67 16.449 -471.23 16.45 C -471.7 16.452 -472.22 16.453 -472.7 16.453 C -472.91 16.453 -473.09 16.453 -473.26 16.454 C -475.76 16.465 -475.76 16.465 -476.71 15.563 C -477.32 14.924 -477.53 14.254 -477.49 13.39 C -477.4 12.583 -477.06 11.951 -476.41 11.432 C -475.42 10.883 -474.51 10.899 -473.39 10.903 Z" fill="#FEFEFE" style="stroke-width: 1;"/>
    <path d="M -411.65 11.432 C -410.92 11.961 -410.57 12.616 -410.44 13.459 C -410.44 13.795 -410.44 14.127 -410.44 14.463 C -410.44 14.565 -410.44 14.667 -410.44 14.771 C -410.44 15.114 -410.44 15.456 -410.44 15.799 C -410.44 16.047 -410.44 16.294 -410.44 16.541 C -410.44 17.222 -410.44 17.903 -410.44 18.585 C -410.44 19.318 -410.44 20.052 -410.44 20.786 C -410.44 22.476 -410.44 24.165 -410.44 25.856 C -410.44 26.691 -410.44 27.526 -410.44 28.36 C -410.44 31.217 -410.44 34.075 -410.44 36.933 C -410.44 37.113 -410.44 37.293 -410.44 37.472 C -410.44 37.651 -410.44 37.831 -410.44 38.011 C -410.44 38.372 -410.4 38.732 -410.4 39.093 C -410.4 39.183 -410.4 39.273 -410.4 39.365 C -410.4 42.266 -410.4 45.165 -410.4 48.067 C -410.4 51.133 -410.4 54.2 -410.4 57.267 C -410.4 57.604 -410.4 57.94 -410.4 58.277 C -410.4 58.401 -410.4 58.401 -410.4 58.528 C -410.4 59.861 -410.4 61.195 -410.4 62.529 C -410.4 63.87 -410.4 65.211 -410.4 66.552 C -410.4 67.279 -410.4 68.005 -410.4 68.731 C -410.4 69.396 -410.4 70.061 -410.4 70.726 C -410.4 70.966 -410.4 71.207 -410.4 71.447 C -410.4 71.774 -410.4 72.101 -410.4 72.428 C -410.4 72.522 -410.4 72.615 -410.4 72.711 C -410.4 73.795 -410.7 74.674 -411.48 75.456 C -412.21 76.059 -412.9 76.211 -413.85 76.174 C -414.76 76.059 -415.36 75.679 -415.92 74.983 C -416.49 74.208 -416.44 73.277 -416.44 72.363 C -416.44 72.262 -416.44 72.161 -416.44 72.056 C -416.44 71.716 -416.44 71.375 -416.44 71.036 C -416.44 70.79 -416.44 70.543 -416.44 70.296 C -416.44 69.62 -416.44 68.943 -416.44 68.265 C -416.44 67.536 -416.44 66.806 -416.44 66.076 C -416.44 64.646 -416.44 63.216 -416.44 61.785 C -416.44 60.623 -416.44 59.461 -416.44 58.299 C -416.44 57.964 -416.44 57.63 -416.44 57.296 C -416.44 57.213 -416.44 57.129 -416.44 57.043 C -416.44 54.704 -416.44 52.364 -416.44 50.026 C -416.44 49.937 -416.44 49.849 -416.44 49.758 C -416.44 49.311 -416.44 48.864 -416.44 48.418 C -416.44 48.329 -416.44 48.24 -416.44 48.148 C -416.44 47.969 -416.44 47.789 -416.44 47.61 C -416.44 44.816 -416.44 42.023 -416.44 39.229 C -416.44 36.09 -416.44 32.951 -416.44 29.814 C -416.44 29.479 -416.44 29.144 -416.44 28.809 C -416.44 28.727 -416.44 28.645 -416.44 28.56 C -416.44 27.233 -416.44 25.907 -416.44 24.581 C -416.44 23.248 -416.44 21.917 -416.44 20.584 C -416.44 19.862 -416.44 19.14 -416.44 18.418 C -416.44 17.757 -416.44 17.097 -416.44 16.436 C -416.44 16.196 -416.44 15.957 -416.44 15.718 C -416.44 15.393 -416.44 15.068 -416.44 14.743 C -416.44 14.65 -416.44 14.558 -416.44 14.462 C -416.44 13.376 -416.23 12.462 -415.49 11.631 C -414.37 10.749 -412.86 10.654 -411.65 11.432 Z" fill="#FEFEFE" style="stroke-width: 1;"/>
  </g>
</svg>