<?xml version="1.0" encoding="utf-8"?>
<svg xmlns="http://www.w3.org/2000/svg" viewBox="-664.94 207.994 339.19 71.534" width="339.19px" height="71.5341px">
  <g transform="matrix(0.9999999999999999, 0, 0, 0.9999999999999999, -2.2737367544323206e-13, -1.1368683772161603e-13)">
    <title>restora</title>
    <path d="M -664.94 279.324 L -664.94 207.994 L -615.82 207.994 C -615.62 214.448 -616.24 220.019 -617.71 224.706 C -619.17 229.393 -621.12 233.35 -623.57 236.577 C -626.01 239.804 -628.66 242.436 -631.51 244.474 L -612.56 279.324 L -625.91 279.324 L -641.91 249.875 C -644.42 250.758 -646.66 251.353 -648.63 251.658 C -650.6 251.964 -652.03 252.117 -652.91 252.117 L -652.91 279.324 L -664.94 279.324 Z M -653.12 240.806 C -649.51 240.806 -646.15 240.093 -643.03 238.666 C -639.9 237.239 -637.17 235.388 -634.83 233.112 C -632.48 230.837 -630.65 228.408 -629.32 225.827 C -628 223.245 -627.34 220.799 -627.34 218.49 L -653.12 218.49 L -653.12 240.806 Z M -605.02 250.792 L -605.02 224.808 L -558.66 224.808 C -558.18 231.465 -558.54 236.968 -559.73 241.315 C -560.92 245.663 -562.68 249.128 -565.03 251.709 C -567.37 254.29 -570.04 256.209 -573.02 257.466 C -576.01 258.723 -579.11 259.556 -582.3 259.963 C -585.49 260.37 -588.51 260.574 -591.37 260.574 C -589.87 262.952 -587.94 264.735 -585.56 265.924 C -583.18 267.113 -580.68 267.911 -578.07 268.319 C -575.45 268.726 -573.02 268.964 -570.78 269.032 L -561.31 269.032 L -561.31 279.528 L -571.29 279.528 C -575.23 279.46 -579.21 279.018 -583.22 278.203 C -587.22 277.388 -590.86 275.944 -594.12 273.872 C -597.38 271.8 -600.01 268.896 -602.01 265.16 C -604.02 261.423 -605.02 256.634 -605.02 250.792 Z M -569.87 235.201 L -593.81 235.201 L -593.81 250.588 C -585.32 250.52 -579.21 249.399 -575.47 247.226 C -571.73 245.052 -569.87 241.044 -569.87 235.201 Z M -561.34 279.526 L -561.58 269.035 L -541.03 268.625 C -540.15 268.625 -539.04 268.523 -537.72 268.319 C -536.39 268.115 -535.22 267.605 -534.2 266.79 C -533.18 265.975 -532.67 264.685 -532.67 262.918 C -532.67 261.355 -533.12 260.116 -534 259.199 C -534.88 258.282 -535.95 257.5 -537.21 256.855 C -538.47 256.21 -539.67 255.547 -540.83 254.868 C -544.5 252.762 -547.09 250.554 -548.62 248.245 C -550.15 245.935 -550.91 243.421 -550.91 240.704 C -550.91 239.277 -550.56 237.647 -549.84 235.813 C -549.13 233.978 -548.03 232.195 -546.53 230.463 C -545.04 228.731 -543.15 227.304 -540.88 226.183 C -538.6 225.062 -535.93 224.502 -532.88 224.502 L -517.17 224.808 L -516.87 235.275 L -530.13 234.998 C -531.01 234.998 -532.2 235.1 -533.69 235.303 C -535.19 235.507 -536.53 236 -537.72 236.781 C -538.91 237.562 -539.5 238.87 -539.5 240.704 C -539.5 242.199 -538.96 243.472 -537.87 244.525 C -536.78 245.578 -535.49 246.479 -534 247.226 C -532.5 247.973 -531.21 248.686 -530.13 249.365 C -526.46 251.471 -524.06 253.662 -522.94 255.938 C -521.82 258.214 -521.26 260.541 -521.26 262.918 C -521.26 264.345 -521.58 265.992 -522.23 267.86 C -522.87 269.729 -523.91 271.529 -525.34 273.261 C -526.76 274.993 -528.62 276.437 -530.89 277.592 C -533.17 278.747 -535.97 279.324 -539.3 279.324 L -561.34 279.526 Z M -484.88 279.426 C -487.13 279.426 -489.52 278.984 -492.07 278.101 C -494.62 277.218 -497.03 275.707 -499.3 273.567 C -501.58 271.427 -503.45 268.506 -504.91 264.803 C -506.37 261.101 -507.1 256.465 -507.1 250.894 L -507.1 235.303 L -516.89 235.273 L -517.19 224.808 L -507.1 224.808 L -507.1 207.994 L -495.89 207.994 L -495.89 224.808 L -484.88 224.808 L -484.88 235.303 L -495.89 235.303 L -495.89 250.894 C -495.82 254.902 -495.38 258.044 -494.56 260.32 C -493.75 262.595 -492.76 264.294 -491.61 265.415 C -490.45 266.536 -489.27 267.266 -488.04 267.606 C -486.82 267.945 -485.77 268.183 -484.88 268.319 L -484.88 279.426 Z M -408.49 279.28 L -408.49 253.296 C -408.49 247.385 -407.49 242.562 -405.48 238.826 C -403.48 235.089 -400.81 232.185 -397.48 230.113 C -394.15 228.041 -390.47 226.547 -386.43 225.63 C -382.38 224.713 -373.5 224.547 -369.45 224.562 L -369.4 235.057 C -372.43 235.098 -379.89 234.903 -382.61 235.412 C -385.32 235.921 -387.79 236.788 -389.99 238.011 C -392.2 239.234 -393.97 241.068 -395.29 243.513 C -396.62 245.959 -397.28 249.254 -397.28 253.397 L -397.28 279.28 L -408.49 279.28 Z M -325.75 253.296 L -325.75 279.28 L -372.11 279.28 C -372.59 272.623 -372.23 267.12 -371.04 262.772 C -369.86 258.425 -368.09 254.96 -365.75 252.378 C -363.4 249.797 -360.74 247.878 -357.75 246.621 C -354.76 245.364 -351.67 244.532 -348.47 244.125 C -345.28 243.717 -342.26 243.513 -339.4 243.513 C -340.9 241.136 -342.83 239.352 -345.21 238.163 C -347.59 236.974 -350.09 236.176 -352.7 235.769 C -355.32 235.361 -357.75 235.123 -359.99 235.055 L -369.46 235.055 L -369.46 224.56 L -359.48 224.56 C -355.47 224.628 -351.48 225.069 -347.5 225.884 C -343.53 226.699 -339.91 228.143 -336.65 230.215 C -333.39 232.287 -330.76 235.191 -328.75 238.928 C -326.75 242.664 -325.75 247.453 -325.75 253.296 Z M -360.9 268.886 L -336.96 268.886 L -336.96 253.499 C -345.45 253.567 -351.56 254.688 -355.3 256.862 C -359.04 259.036 -360.9 263.044 -360.9 268.886 Z" style="fill: rgb(255, 255, 255); text-wrap-mode: nowrap;"/>
    <path d="M -415.54 248.795 C -415.54 256.822 -419.26 265.145 -424.48 270.362 C -429.69 275.579 -438.02 279.295 -446.04 279.295 C -454.07 279.295 -462.39 275.579 -467.61 270.362 C -472.83 265.145 -476.54 256.823 -476.54 248.795 C -476.54 240.768 -472.83 232.445 -467.61 227.228 C -462.39 222.011 -454.07 218.295 -446.04 218.295 C -438.02 218.295 -429.69 222.011 -424.48 227.228 C -419.26 232.445 -415.54 240.767 -415.54 248.795 Z M -446.09 268.348 C -446.03 268.348 -445.98 268.347 -445.93 268.347 L -445.93 229.277 C -445.98 229.276 -446.03 229.276 -446.09 229.276 C -456.85 229.276 -465.59 238.023 -465.59 248.812 C -465.59 259.6 -456.85 268.347 -446.09 268.347 L -446.09 268.348 Z" style="stroke-width: 11px; fill: rgb(255, 255, 255);"/>
  </g>
</svg>