<?xml version="1.0" encoding="UTF-8"?>
<svg xmlns="http://www.w3.org/2000/svg" height="1024" width="1024" viewBox="0 0 29 29" role="img"><path fill="#ffffff" d="M0,0 h29v29H0z" shape-rendering="crispEdges"></path><path fill="#0d0320" d="M2 2h7v1H2zM10 2h1v1H10zM13 2h1v1H13zM15 2h1v1H15zM20,2 h7v1H20zM2 3h1v1H2zM8 3h1v1H8zM10 3h2v1H10zM14 3h2v1H14zM20 3h1v1H20zM26,3 h1v1H26zM2 4h1v1H2zM4 4h3v1H4zM8 4h1v1H8zM10 4h2v1H10zM15 4h1v1H15zM20 4h1v1H20zM22 4h3v1H22zM26,4 h1v1H26zM2 5h1v1H2zM4 5h3v1H4zM8 5h1v1H8zM11 5h2v1H11zM14 5h2v1H14zM17 5h2v1H17zM20 5h1v1H20zM22 5h3v1H22zM26,5 h1v1H26zM2 6h1v1H2zM4 6h3v1H4zM8 6h1v1H8zM10 6h1v1H10zM12 6h3v1H12zM18 6h1v1H18zM20 6h1v1H20zM22 6h3v1H22zM26,6 h1v1H26zM2 7h1v1H2zM8 7h1v1H8zM11 7h1v1H11zM13 7h3v1H13zM20 7h1v1H20zM26,7 h1v1H26zM2 8h7v1H2zM10 8h1v1H10zM12 8h1v1H12zM14 8h1v1H14zM16 8h1v1H16zM18 8h1v1H18zM20,8 h7v1H20zM14 9h3v1H14zM18 9h1v1H18zM2 10h1v1H2zM5 10h6v1H5zM12 10h1v1H12zM14 10h1v1H14zM16 10h4v1H16zM22 10h1v1H22zM24,10 h3v1H24zM4 11h1v1H4zM7 11h1v1H7zM9 11h3v1H9zM13 11h1v1H13zM16 11h2v1H16zM19 11h1v1H19zM21 11h5v1H21zM2 12h1v1H2zM4 12h1v1H4zM6 12h1v1H6zM8 12h1v1H8zM11 12h1v1H11zM13 12h2v1H13zM16 12h2v1H16zM20 12h2v1H20zM23 12h1v1H23zM26,12 h1v1H26zM2 13h2v1H2zM5 13h1v1H5zM7 13h1v1H7zM11 13h4v1H11zM16 13h2v1H16zM21 13h1v1H21zM23,13 h4v1H23zM3 14h2v1H3zM8 14h2v1H8zM11 14h2v1H11zM16 14h2v1H16zM20 14h1v1H20zM26,14 h1v1H26zM2 15h2v1H2zM6 15h1v1H6zM11 15h1v1H11zM14 15h1v1H14zM16 15h4v1H16zM22 15h1v1H22zM25 15h1v1H25zM2 16h7v1H2zM10 16h1v1H10zM12 16h1v1H12zM16 16h5v1H16zM22,16 h5v1H22zM2 17h1v1H2zM4 17h2v1H4zM7 17h1v1H7zM9 17h2v1H9zM12 17h1v1H12zM14 17h1v1H14zM16 17h2v1H16zM19 17h1v1H19zM21 17h1v1H21zM23 17h2v1H23zM26,17 h1v1H26zM2 18h1v1H2zM4 18h1v1H4zM6 18h5v1H6zM13 18h3v1H13zM18 18h5v1H18zM24 18h2v1H24zM10 19h4v1H10zM18 19h1v1H18zM22 19h1v1H22zM24 19h2v1H24zM2 20h7v1H2zM10 20h1v1H10zM12 20h1v1H12zM14 20h3v1H14zM18 20h1v1H18zM20 20h1v1H20zM22 20h1v1H22zM26,20 h1v1H26zM2 21h1v1H2zM8 21h1v1H8zM10 21h1v1H10zM12 21h2v1H12zM15 21h1v1H15zM17 21h2v1H17zM22 21h1v1H22zM26,21 h1v1H26zM2 22h1v1H2zM4 22h3v1H4zM8 22h1v1H8zM10 22h1v1H10zM13 22h2v1H13zM16 22h7v1H16zM2 23h1v1H2zM4 23h3v1H4zM8 23h1v1H8zM10 23h3v1H10zM14 23h1v1H14zM17 23h2v1H17zM20 23h1v1H20zM25,23 h2v1H25zM2 24h1v1H2zM4 24h3v1H4zM8 24h1v1H8zM11 24h1v1H11zM13 24h2v1H13zM16 24h4v1H16zM22,24 h5v1H22zM2 25h1v1H2zM8 25h1v1H8zM12 25h3v1H12zM21 25h2v1H21zM24,25 h3v1H24zM2 26h7v1H2zM10 26h1v1H10zM13 26h1v1H13zM18 26h2v1H18zM23 26h1v1H23zM26,26 h1v1H26z" shape-rendering="crispEdges"></path></svg>
