<?xml version="1.0" encoding="utf-8"?>
<svg xmlns="http://www.w3.org/2000/svg" viewBox="121.39 -64.5843 426.179 270.7146" width="426.179px" height="270.715px">
  <path d="M 431.951 -64.393 C 431.796 -64.253 431.669 -61.533 431.669 -58.363 L 431.669 -52.603 L 428.154 -49.683 C 426.222 -48.073 420.46 -43.223 415.352 -38.903 C 410.244 -34.573 402.725 -28.213 398.644 -24.763 C 394.564 -21.313 389.898 -17.363 388.275 -15.983 C 386.331 -14.343 385.107 -13.563 384.688 -13.723 C 384.339 -13.853 380.369 -16.083 375.868 -18.673 C 371.366 -21.253 363.926 -25.523 359.333 -28.153 C 345.622 -35.993 340.938 -38.763 340.626 -39.243 C 340.463 -39.483 340.328 -41.603 340.324 -43.943 C 340.318 -48.123 340.303 -48.193 339.412 -48.063 C 338.541 -47.943 338.503 -47.773 338.394 -43.393 L 338.282 -38.853 L 333.613 -33.763 C 331.045 -30.963 323.937 -23.463 317.817 -17.083 C 311.696 -10.703 295.934 5.837 282.788 19.667 C 260.172 43.477 231.544 73.547 223.999 81.427 C 222.108 83.397 216.764 88.617 212.125 93.027 C 202.036 102.613 168.328 134.469 164.038 138.474 L 161.004 141.306 L 158.806 140.735 C 155.998 140.005 154.798 140.001 154.798 140.721 C 154.798 141.033 154.979 141.397 155.201 141.531 C 155.423 141.664 162.078 143.69 169.99 146.031 C 190.708 152.161 214.865 159.371 227.638 163.235 C 233.724 165.076 239.283 166.744 239.989 166.943 C 240.701 167.142 241.387 167.649 241.527 168.081 C 241.867 169.126 243.335 169.813 247.385 170.821 C 251.503 171.845 252.699 172.534 255.501 175.49 C 260.017 180.254 263.367 188.835 263.96 197.153 L 264.058 198.529 L 271.502 199.599 C 292.057 202.553 322.583 204.395 351.501 205.416 C 376.385 206.295 415.147 206.264 437.42 205.418 C 469.449 204.202 505.15 201.647 526.643 198.028 L 528.454 197.723 L 528.573 194.839 C 528.687 192.074 528.722 191.981 529.427 192.603 C 530.019 193.127 530.867 193.231 533.803 193.139 L 537.445 193.026 L 533.389 188.775 C 528.652 183.81 528.561 184.457 534.49 180.846 C 539.116 178.028 542.363 175.57 543.665 173.901 C 545.017 172.168 547.569 168.013 547.569 167.546 C 547.569 167.238 545.988 167.337 543.865 167.778 C 543.628 167.827 543.279 167.337 543.088 166.688 C 542.491 164.658 539.923 153.189 539.923 152.553 C 539.923 152.119 540.351 151.941 541.432 151.924 C 544.228 151.883 546.144 151.385 546.286 150.664 C 546.392 150.127 546.137 149.982 545.083 149.984 C 543.679 149.986 523.246 151.668 516.439 152.341 C 514.257 152.557 511.812 152.71 511.006 152.682 C 509.52 152.63 511.51 152.396 528.856 150.576 C 534.168 150.018 538.93 149.475 539.437 149.367 C 540.346 149.175 540.333 149.127 538.515 145.941 C 533.789 137.66 527.307 124.551 522.728 114.014 C 508.853 82.087 498.902 45.937 495.243 14.167 C 494.022 3.567 494.451 4.377 491.506 7.137 C 487.581 10.827 487.392 10.947 486.453 10.457 C 485.85 10.147 484.326 10.187 480.684 10.627 C 473.144 11.527 439.01 15.147 438.076 15.147 C 437.333 15.147 437.28 14.987 437.519 13.427 C 437.683 12.357 437.601 11.367 437.304 10.827 C 436.891 10.077 436.604 9.987 435.255 10.197 L 433.685 10.447 L 433.583 -26.993 C 433.491 -60.443 433.414 -64.453 432.857 -64.563 C 432.514 -64.623 432.107 -64.553 431.951 -64.393 M 428.425 -48.583 C 426.751 -47.153 420.051 -41.473 413.535 -35.963 C 393.886 -19.363 386.597 -13.103 386.604 -12.823 C 386.611 -12.553 387.758 -11.893 415.371 3.927 L 431.468 13.137 L 431.573 -2.953 C 431.631 -11.803 431.631 -26.283 431.573 -35.123 L 431.468 -51.193 L 428.425 -48.583 M 340.266 -23.863 C 340.237 -16.353 340.102 -3.283 339.964 5.187 L 339.714 20.577 L 340.969 20.377 C 341.96 20.217 342.36 20.367 342.876 21.087 L 343.528 21.997 L 344.841 20.797 C 345.563 20.137 354.302 12.727 364.262 4.347 C 374.223 -4.043 382.794 -11.303 383.31 -11.773 L 384.248 -12.643 L 379.084 -15.603 C 376.244 -17.233 369.212 -21.263 363.458 -24.553 C 357.703 -27.853 350.264 -32.113 346.927 -34.033 C 343.591 -35.953 340.738 -37.523 340.589 -37.523 C 340.44 -37.523 340.295 -31.373 340.266 -23.863 M 335.871 -34.673 C 326.924 -24.223 314.981 0.597 296.373 47.387 L 295.045 50.727 L 283.575 56.317 C 277.267 59.387 260.607 67.347 246.552 74.007 L 220.998 86.107 L 213.351 93.387 C 206.676 99.747 173.631 130.989 165.303 138.814 L 162.327 141.61 L 171.808 143.912 L 181.289 146.214 L 184.845 144.096 C 186.896 142.874 196.405 135.554 207.315 126.797 C 217.718 118.447 233.382 105.883 242.125 98.877 C 316.599 39.187 332.596 26.247 335.741 23.117 L 337.414 21.457 L 337.647 14.667 C 337.944 6.027 338.351 -37.133 338.135 -37.133 C 338.046 -37.133 337.027 -36.023 335.871 -34.673 M 371.909 -0.723 C 364.604 5.467 355.142 13.467 350.882 17.047 L 343.135 23.557 L 343.135 25.207 C 343.135 26.497 343.301 26.897 343.902 27.047 C 344.324 27.157 352.156 25.997 361.307 24.477 C 370.458 22.967 378.65 21.697 379.51 21.677 C 380.953 21.637 381.269 21.407 383.535 18.697 L 385.994 15.757 L 386.259 30.287 C 387.153 79.327 395.959 123.353 411.095 154.467 C 412.453 157.259 413.517 159.589 413.459 159.645 C 413.402 159.701 406.215 160.029 397.489 160.373 C 388.763 160.717 381.536 161.084 381.428 161.19 C 381.32 161.295 389.219 161.382 398.982 161.382 C 411.571 161.382 416.812 161.508 417.008 161.819 C 417.389 162.421 416.369 163.005 415.261 162.819 C 413.61 162.543 413.872 163.323 416.268 165.81 C 417.565 167.158 419.561 169.337 420.703 170.651 C 421.844 171.966 423.508 173.536 424.399 174.139 C 425.292 174.743 425.942 175.363 425.845 175.516 C 425.609 175.889 426.039 175.955 430.161 176.183 L 433.684 176.377 L 433.582 109.232 C 433.481 42.727 433.473 42.087 432.685 41.937 C 432.248 41.857 431.705 41.547 431.478 41.257 C 431.19 40.877 429.855 40.687 427.041 40.617 C 423.782 40.527 423.017 40.397 423.017 39.917 C 423.017 39.437 423.817 39.307 427.341 39.217 L 431.665 39.107 L 431.646 26.817 L 431.627 14.527 L 429.736 13.407 C 426.189 11.307 385.449 -11.973 385.319 -11.973 C 385.247 -11.973 379.213 -6.913 371.909 -0.723 M 477.345 12.077 C 475.574 12.277 466.071 13.327 456.228 14.407 C 444.804 15.657 438.219 16.547 438.024 16.847 C 437.218 18.077 437.969 18.567 440.322 18.347 C 442.858 18.097 482.525 11.987 482.701 11.817 C 482.975 11.547 481.337 11.627 477.345 12.077 M 464.191 15.877 C 453.415 17.537 444.466 19.017 444.304 19.177 C 444.143 19.347 447.889 19.507 452.629 19.547 C 457.369 19.597 465.051 19.667 469.699 19.707 L 478.15 19.777 L 481.47 16.587 C 483.296 14.837 484.79 13.257 484.79 13.097 C 484.79 12.697 486.425 12.477 464.191 15.877 M 438.511 20.797 C 437.564 21.217 437.511 21.397 437.622 23.857 C 437.731 26.247 437.824 26.497 438.707 26.707 C 439.246 26.847 445.683 25.787 453.278 24.327 C 460.76 22.897 467.516 21.597 468.29 21.457 C 470.216 21.087 461.887 20.667 449.376 20.487 C 442.575 20.387 439.205 20.487 438.511 20.797 M 456.657 24.797 C 447.271 26.597 439.484 28.237 439.353 28.427 C 439.222 28.617 438.797 28.887 438.41 29.027 C 437.786 29.247 437.706 29.897 437.706 34.717 C 437.706 38.527 437.856 40.307 438.209 40.667 C 438.611 41.087 438.611 41.227 438.209 41.377 C 437.828 41.507 437.706 43.557 437.706 49.777 C 437.706 54.297 437.808 57.997 437.933 57.997 C 438.243 57.997 475.701 22.257 475.869 21.807 C 476.116 21.137 473.831 21.497 456.657 24.797 M 332.468 27.447 C 330.031 29.447 325.595 33.067 322.608 35.517 C 319.622 37.967 315.97 41.297 314.492 42.917 C 306.32 51.887 288.608 79.597 270.195 112.225 L 267.211 117.511 L 227.805 130.345 C 193.756 141.434 188.024 143.411 185.626 144.89 C 184.1 145.832 183.014 146.648 183.212 146.702 C 185.02 147.201 214.179 154.306 214.418 154.306 C 215.355 154.306 223.114 147.191 233.121 137.156 L 244.439 125.806 L 252.84 123.1 C 257.46 121.612 262.724 119.875 264.538 119.239 L 267.835 118.083 L 271.349 111.921 C 275.765 104.176 283.43 91.067 287.082 85.017 C 289.822 80.477 290.187 80.087 307.812 62.417 C 320.728 49.477 327.139 42.727 330.701 38.347 C 333.421 34.997 335.895 31.777 336.197 31.177 C 336.5 30.587 336.917 29.997 337.124 29.877 C 337.568 29.607 337.641 23.787 337.199 23.817 C 337.033 23.827 334.904 25.457 332.468 27.447 M 367.079 26.187 C 361.546 27.467 354.302 29.117 350.982 29.867 C 343.842 31.467 343.967 31.477 359.836 30.657 C 375.267 29.857 374.124 30.097 376.534 27.147 C 378.683 24.507 378.97 23.777 377.844 23.827 C 377.457 23.847 372.613 24.907 367.079 26.187 M 365.671 24.867 C 365.118 24.967 360.05 25.827 354.41 26.787 C 344.861 28.407 342.399 29.107 343.26 29.947 C 343.571 30.257 348.277 29.317 360.439 26.527 C 367.273 24.957 369.937 24.117 365.671 24.867 M 365.671 31.517 C 364.675 31.587 359.423 31.837 354 32.077 C 348.552 32.317 343.916 32.697 343.638 32.927 C 342.978 33.457 342.987 36.947 343.649 37.487 C 344.021 37.787 347.532 37.087 356.426 34.957 C 367.456 32.307 371.352 31.137 368.468 31.337 C 367.925 31.377 366.667 31.457 365.671 31.517 M 336.853 32.747 C 336.607 32.907 334.121 35.847 331.327 39.277 C 326.42 45.307 326.064 45.877 320.877 55.987 C 302.266 92.257 290.629 121.007 288.778 135.284 L 288.314 138.864 L 267.332 142.239 C 255.792 144.095 241.025 146.459 234.517 147.493 L 222.683 149.372 L 219.313 152.005 C 217.46 153.454 216.085 154.715 216.257 154.808 C 216.43 154.901 223.634 156.693 232.266 158.79 L 247.96 162.603 L 251.111 160.846 C 252.843 159.879 254.594 158.794 255.002 158.434 C 255.409 158.074 258.113 154.54 261.011 150.581 C 264.519 145.787 266.58 143.313 267.18 143.176 C 267.676 143.062 272.814 142.211 278.598 141.284 L 289.115 139.599 L 289.567 135.712 C 290.445 128.171 293.819 117.485 300.267 101.819 C 304.823 90.747 304.68 91.027 308.561 85.887 C 320.409 70.197 332.864 52.647 334.91 48.757 L 337.183 44.437 L 337.399 38.437 C 337.519 35.147 337.545 32.447 337.458 32.457 C 337.371 32.457 337.099 32.587 336.853 32.747 M 358.025 35.727 C 350.831 37.497 344.538 39.197 344.04 39.517 L 343.135 40.107 L 343.135 53.377 C 343.135 60.677 343.281 66.647 343.46 66.647 C 343.64 66.647 344.973 65.187 346.425 63.407 C 349.073 60.147 350.306 58.657 364.061 42.137 C 368.156 37.227 371.566 33.027 371.64 32.827 C 371.819 32.317 372.771 32.117 358.025 35.727 M 335.059 51.077 C 332.79 55.547 331.895 59.137 330.893 67.827 C 329.708 78.087 328.665 106.911 329.355 110.296 C 329.626 111.624 330.95 113.792 334.516 118.748 L 339.312 125.413 L 339.414 88.127 C 339.471 67.617 339.376 50.017 339.204 49.007 C 338.943 47.497 338.74 47.177 337.983 47.137 C 337.22 47.107 336.756 47.727 335.059 51.077 M 329.299 120.598 C 329.402 124.327 329.659 132.863 329.871 139.565 C 330.084 146.267 330.257 153.109 330.257 154.769 L 330.257 157.787 L 327.943 158.065 C 323.623 158.585 324.003 158.926 328.849 158.876 C 332.895 158.834 333.678 158.922 333.678 159.416 C 333.678 159.815 333.133 160.069 331.997 160.202 L 330.316 160.399 L 333.412 167.081 L 336.508 173.764 L 338.026 173.887 L 339.543 174.01 L 339.428 150.694 L 339.312 127.379 L 334.483 120.602 C 331.827 116.875 329.532 113.823 329.383 113.821 C 329.234 113.819 329.196 116.869 329.299 120.598 M 537.911 152.068 C 537.911 152.255 540.676 164.102 541.21 166.197 C 541.471 167.224 541.844 168.064 542.038 168.064 C 542.233 168.064 542.292 167.754 542.171 167.376 C 541.707 165.93 539.596 157.181 539.349 155.682 C 538.851 152.656 538.649 151.947 538.281 151.947 C 538.077 151.947 537.911 152.001 537.911 152.068 M 495.78 155.643 C 474.49 157.404 456.967 158.946 456.84 159.07 C 456.714 159.193 456.852 160.339 457.149 161.615 L 457.687 163.937 L 462.083 164.143 C 464.501 164.257 472.365 164.395 479.558 164.449 C 492.252 164.546 492.658 164.573 493.342 165.367 C 493.729 165.818 494.046 166.799 494.046 167.549 C 494.046 168.826 494.117 168.899 495.152 168.703 C 495.761 168.588 498.432 168.383 501.088 168.249 C 506.754 167.962 507.178 167.873 507.43 166.932 C 507.567 166.422 508.165 166.147 509.542 165.963 C 513.35 165.453 513.632 165.536 514.352 167.376 C 514.711 168.295 515.586 169.699 516.297 170.497 L 517.588 171.946 L 524.027 171.021 C 531.052 170.012 540.43 168.497 540.548 168.352 C 540.589 168.302 540.02 165.873 539.285 162.954 C 538.55 160.035 537.729 156.453 537.462 154.994 C 536.983 152.375 536.96 152.341 535.733 152.391 C 535.049 152.419 517.07 153.882 495.78 155.643 M 452.788 159.254 C 452.509 159.367 452.503 160.25 452.77 161.974 L 453.163 164.526 L 455.136 164.526 C 456.642 164.526 457.059 164.399 456.896 163.987 C 456.78 163.69 456.558 162.624 456.404 161.617 C 456.064 159.402 454.662 158.486 452.788 159.254 M 252.284 161.066 C 250.61 162.01 249.514 162.86 249.716 163.057 C 250.084 163.417 255.808 160.291 255.808 159.73 C 255.808 159.179 255.268 159.383 252.284 161.066 M 255.015 161.398 C 252.564 162.792 251.907 163.329 252.455 163.487 C 255.338 164.323 276.396 167.645 288.807 169.221 C 294.008 169.881 299.403 170.569 300.796 170.749 C 302.569 170.978 303.292 170.947 303.21 170.648 C 303.146 170.414 301.916 168.23 300.477 165.797 L 297.862 161.372 L 280.457 161.636 C 268.372 161.819 263.051 161.773 263.051 161.486 C 263.051 160.915 264.023 160.604 266.002 160.544 C 267.147 160.51 266.721 160.391 264.661 160.172 C 257.89 159.45 258.596 159.361 255.015 161.398 M 446.257 159.732 C 445.435 159.852 445.352 160.078 445.352 162.195 L 445.352 164.526 L 446.701 164.526 L 448.051 164.526 L 447.858 162.463 C 447.622 159.929 447.409 159.565 446.257 159.732 M 448.313 160.89 C 448.45 161.701 448.564 162.85 448.567 163.445 C 448.571 164.464 448.676 164.526 450.382 164.526 C 452.398 164.526 452.398 164.526 451.937 161.24 L 451.681 159.416 L 449.872 159.416 L 448.063 159.416 L 448.313 160.89 M 442.937 162.168 C 442.937 164.421 442.982 164.526 443.943 164.526 C 444.783 164.526 444.949 164.34 444.949 163.396 C 444.949 161.146 444.481 159.809 443.692 159.809 C 443.038 159.809 442.937 160.124 442.937 162.168 M 437.974 160.464 C 437.826 160.608 437.706 164.235 437.706 168.523 L 437.706 176.319 L 439.114 176.319 L 440.523 176.319 L 440.523 170.582 C 440.523 165.176 440.569 164.834 441.328 164.64 C 442.007 164.467 442.132 164.104 442.132 162.318 L 442.132 160.202 L 440.188 160.202 C 439.117 160.202 438.121 160.32 437.974 160.464 M 308.425 160.889 C 305.161 160.955 302.49 161.108 302.49 161.229 C 302.49 161.35 304.762 163.798 307.539 166.67 L 312.588 171.89 L 315.084 172.134 C 322.53 172.861 332.372 173.598 332.534 173.44 C 332.636 173.341 332.378 172.223 331.962 170.956 C 331.545 169.69 330.676 166.841 330.029 164.625 L 328.854 160.595 L 321.607 160.682 C 317.622 160.73 311.69 160.823 308.425 160.889 M 330.283 163.178 C 330.732 164.676 331.588 167.622 332.187 169.723 C 333.191 173.248 333.363 173.564 334.411 173.79 C 335.035 173.925 335.636 173.948 335.745 173.841 C 335.855 173.734 335.408 172.609 334.752 171.342 C 334.097 170.074 332.796 167.27 331.861 165.11 C 329.766 160.273 329.21 159.593 330.283 163.178 M 299.095 161.345 C 298.643 161.516 298.493 161.745 298.736 161.892 C 298.967 162.031 300.295 164.089 301.687 166.465 L 304.218 170.784 L 306.271 171.163 C 309.681 171.791 311.344 171.96 311.325 171.675 C 311.285 171.082 301.429 161.427 300.679 161.245 C 300.236 161.139 299.524 161.183 299.095 161.345 M 360.6 162.86 L 343.657 162.962 L 343.396 166.556 C 343.252 168.533 343.135 171.096 343.135 172.252 L 343.135 174.354 L 344.644 174.356 C 345.474 174.358 347.355 174.47 348.824 174.606 L 351.496 174.852 L 351.643 171.672 C 351.732 169.775 352.002 168.287 352.312 167.984 C 352.726 167.579 358.534 167.453 380.639 167.368 C 405.146 167.275 408.557 167.334 409.393 167.869 C 410.283 168.439 410.341 168.712 410.341 172.397 L 410.341 176.319 L 416.995 176.319 C 423.426 176.319 423.635 176.294 423.237 175.566 C 423.01 175.152 420.287 172.297 417.186 169.22 C 414.085 166.143 411.548 163.487 411.548 163.316 C 411.548 162.546 411.912 162.549 360.6 162.86 M 502.497 168.825 C 499.309 169.032 499.067 169.109 498.945 169.954 C 498.816 170.841 498.871 170.856 501.359 170.619 C 505.126 170.261 505.6 170.115 505.832 169.248 C 505.948 168.813 506.015 168.49 505.98 168.53 C 505.946 168.571 504.378 168.703 502.497 168.825 M 494.046 170.268 C 494.046 171.041 494.202 171.234 494.682 171.054 C 495.033 170.923 495.938 170.816 496.695 170.816 C 497.802 170.816 498.07 170.662 498.07 170.03 C 498.07 169.348 497.802 169.243 496.058 169.243 C 494.158 169.243 494.046 169.3 494.046 170.268 M 507.427 170.715 L 504.509 170.85 L 504.509 172.063 L 504.509 173.276 L 507.024 173.014 C 513.097 172.38 513.314 172.331 513.059 171.653 C 512.734 170.79 512.118 170.42 511.149 170.507 C 510.706 170.546 509.031 170.64 507.427 170.715 M 496.762 171.501 L 494.046 171.638 L 494.046 173.022 C 494.046 174.155 494.174 174.37 494.75 174.206 C 495.137 174.095 497.31 173.884 499.579 173.736 L 503.704 173.466 L 503.704 172.337 C 503.704 171.081 504.099 171.129 496.762 171.501 M 528.655 187.326 C 528.655 188.407 528.836 189.291 529.057 189.291 C 529.278 189.291 529.46 188.407 529.46 187.326 C 529.46 186.245 529.278 185.36 529.057 185.36 C 528.836 185.36 528.655 186.245 528.655 187.326 M 121.39 -62.945 C 155.38 -62.945 189.368 -62.945 224.388 -62.945 C 224.388 -44.465 224.388 -25.985 224.388 -6.945 C 244.518 -6.945 264.648 -6.945 285.388 -6.945 C 285.377 -22.385 285.401 -34.63 285.388 -62.945 C 319.708 -62.945 354.028 -62.945 389.388 -62.945 C 389.388 25.825 389.388 114.595 389.388 206.055 C 331.329 206.01 166.568 206.245 121.39 206.055 C 121.39 117.285 121.39 28.515 121.39 -62.945 Z" stroke="none" fill-rule="evenodd" style="stroke-width: 1; fill: rgb(255, 255, 255);" transform="matrix(0.9999999999999999, 0, 0, 0.9999999999999999, 0, -2.842170943040401e-14)"/>
</svg>